<?xml version="1.0" encoding="UTF-8" standalone="no"?><!DOCTYPE svg PUBLIC "-//W3C//DTD SVG 1.1//EN" "http://www.w3.org/Graphics/SVG/1.1/DTD/svg11.dtd"><svg width="100%" height="100%" viewBox="0 0 723 619" version="1.1" xmlns="http://www.w3.org/2000/svg" xmlns:xlink="http://www.w3.org/1999/xlink" xml:space="preserve" style="fill-rule:evenodd;clip-rule:evenodd;stroke-linejoin:round;stroke-miterlimit:1.41421;"><g id="g3012"><path id="rect2999" d="M362.982,11.357l-345.203,193.101l345.203,193.1l345.202,-193.1l-345.202,-193.101Z"/><path id="rect2999-5-6" d="M371.444,408.408l0,194.497l333.74,-186.688l0,-194.497l-333.74,186.688Z""/><path id="rect2999-5-6-6" d="M360.698,408.545l0,194.497l-347.698,-194.496l0,-194.497l347.698,194.496Z"/><path id="path3847-5" d="M269.18,193.189c0,-30.101 -43.622,-54.502 -97.432,-54.502c-53.811,0 -97.432,24.401 -97.432,54.502c0,30.1 43.621,54.501 97.432,54.501c53.81,0 97.432,-24.401 97.432,-54.501Z" style="fill:#fff;fill-opacity:0.47451;"/><path id="path3847" d="M269.18,154.043c0,-30.101 -43.622,-54.502 -97.432,-54.502c-53.811,0 -97.432,24.401 -97.432,54.502c0,30.1 43.621,54.502 97.432,54.502c53.81,0 97.432,-24.402 97.432,-54.502Z"/><path id="path3847-5-2" d="M450.862,288.145c0,-0.005 0,-0.01 0,-0.015c0,-29.898 -43.983,-54.501 -97.432,-54.501c-53.45,0 -97.432,24.603 -97.432,54.501l0,0.029c0,29.899 43.982,54.502 97.432,54.502c53.449,0 97.432,-24.603 97.432,-54.502l0,-0.014Z" style="fill:#fff;fill-opacity:0.47451;"/><path id="path3847-3" d="M450.862,248.999c0,-0.005 0,-0.01 0,-0.014c0,-29.899 -43.983,-54.502 -97.432,-54.502c-53.45,0 -97.432,24.603 -97.432,54.502l0,0.028c0,29.899 43.982,54.502 97.432,54.502c53.449,0 97.432,-24.603 97.432,-54.502l0,-0.014Z"/><path id="path3847-5-1" d="M638.084,193.189c0,-30.101 -43.622,-54.502 -97.432,-54.502c-53.81,0 -97.432,24.401 -97.432,54.502c0,30.1 43.622,54.501 97.432,54.501c53.81,0 97.432,-24.401 97.432,-54.501Z" style="fill:#fff;fill-opacity:0.47451;"/><path id="path3847-7" d="M638.084,154.043c0,-30.101 -43.622,-54.502 -97.432,-54.502c-53.81,0 -97.432,24.401 -97.432,54.502c0,30.1 43.622,54.502 97.432,54.502c53.81,0 97.432,-24.402 97.432,-54.502Z"/><path id="path3847-5-3" d="M450.862,93.648c0,-0.005 0,-0.01 0,-0.015c0,-29.898 -43.983,-54.502 -97.432,-54.502c-53.45,0 -97.432,24.604 -97.432,54.502l0,0.029c0,29.899 43.982,54.502 97.432,54.502c53.449,0 97.432,-24.603 97.432,-54.502l0,-0.014Z" style="fill:#fff;fill-opacity:0.47451;"/><path id="path3847-4" d="M450.862,54.502c0,-0.005 0,-0.01 0,-0.014c0,-29.899 -43.983,-54.502 -97.432,-54.502c-53.45,0 -97.432,24.603 -97.432,54.502l0,0.028c0,29.899 43.982,54.502 97.432,54.502c53.449,0 97.432,-24.603 97.432,-54.502l0,-0.014Z"/></g></svg>
