<?xml version="1.0" encoding="UTF-8" standalone="no"?>
<!DOCTYPE svg PUBLIC "-//W3C//DTD SVG 1.1//EN" "http://www.w3.org/Graphics/SVG/1.1/DTD/svg11.dtd">
<svg width="100%" height="100%" viewBox="0 0 1600 1600" version="1.1" xmlns="http://www.w3.org/2000/svg" xmlns:xlink="http://www.w3.org/1999/xlink" xml:space="preserve" style="fill-rule:evenodd;clip-rule:evenodd;stroke-linejoin:round;stroke-miterlimit:1.41421;">
    <g transform="matrix(1.25695,0,0,1.37358,-264.059,-134.776)">
        <path d="M312.985,436.344L774.231,935.611L312.985,935.611L312.985,436.344Z""/>
    </g>
    <g transform="matrix(-1.25695,0,0,1.37358,1875.3,-134.776)">
        <path d="M312.985,436.344L774.231,935.611L312.985,935.611L312.985,436.344Z""/>
    </g>
    <g transform="matrix(1.58024,0,0,1.76328,-600.521,-483.864)">
        <path d="M890.001,417.077L1112.24,927.226L667.763,927.226L890.001,417.077Z""/>
    </g>
    <g transform="matrix(1.23961,0,0,1.39259,-225.603,-175.676)">
        <circle cx="294.144" cy="435.158" r="100.721""/>
    </g>
    <g transform="matrix(1.23961,0,0,1.39259,439.007,-356.219)">
        <circle cx="294.144" cy="435.158" r="100.721""/>
    </g>
    <g transform="matrix(1.23961,0,0,1.39259,1096.36,-175.676)">
        <circle cx="294.144" cy="435.158" r="100.721""/>
    </g>
    <g transform="matrix(1.2305,0,0,1.44056,-282.498,-207.603)">
        <path d="M1433.88,1028.91C1433.88,1006.09 1414.58,987.565 1390.8,987.565C1390.8,987.565 377.876,987.565 377.786,987.565C377.786,987.565 377.786,987.565 377.786,987.565C354.005,987.565 334.698,1006.09 334.698,1028.91L334.698,1111.61C334.698,1134.42 354.005,1152.95 377.786,1152.95L1390.8,1152.95C1414.58,1152.95 1433.88,1134.42 1433.88,1111.61L1433.88,1028.91Z"/>
    </g>
</svg>
