<?xml version="1.0" encoding="UTF-8" standalone="no"?><!DOCTYPE svg PUBLIC "-//W3C//DTD SVG 1.1//EN" "http://www.w3.org/Graphics/SVG/1.1/DTD/svg11.dtd"><svg width="100%" height="100%" viewBox="0 0 1024 1024" version="1.1" xmlns="http://www.w3.org/2000/svg" xmlns:xlink="http://www.w3.org/1999/xlink" xml:space="preserve" style="fill-rule:evenodd;clip-rule:evenodd;stroke-linecap:round;stroke-linejoin:round;stroke-miterlimit:1.5;"><path d="M440.596,226.178c-11.243,-1.108 -22.567,-1.108 -33.81,0l-5.079,26.697c-10.763,1.632 -21.309,4.458 -31.446,8.425l-17.748,-20.58c-10.29,4.662 -20.097,10.324 -29.279,16.905l8.949,25.66c-8.504,6.795 -16.225,14.515 -23.02,23.02l-25.66,-8.95c-6.58,9.183 -12.242,18.99 -16.905,29.28l20.581,17.748c-3.967,10.136 -6.793,20.683 -8.426,31.445l-26.697,5.08c-1.107,11.243 -1.107,22.567 0,33.809l26.697,5.08c1.633,10.762 4.459,21.309 8.426,31.445l-20.581,17.748c4.663,10.29 10.325,20.097 16.905,29.28l25.66,-8.949c6.795,8.504 14.516,16.224 23.02,23.019l-8.949,25.661c9.182,6.58 18.989,12.242 29.279,16.904l17.748,-20.58c10.137,3.967 20.683,6.793 31.446,8.425l5.079,26.698c11.243,1.107 22.567,1.107 33.81,0l5.08,-26.698c10.762,-1.632 21.308,-4.458 31.445,-8.425l17.748,20.58c10.29,-4.662 20.097,-10.324 29.279,-16.904l-8.949,-25.661c8.504,-6.795 16.225,-14.515 23.02,-23.019l25.66,8.949c6.58,-9.183 12.242,-18.99 16.905,-29.28l-20.581,-17.748c3.967,-10.136 6.793,-20.683 8.426,-31.445l26.697,-5.08c1.107,-11.242 1.107,-22.566 0,-33.809l-26.697,-5.08c-1.633,-10.762 -4.459,-21.309 -8.426,-31.445l20.581,-17.748c-4.663,-10.29 -10.325,-20.097 -16.905,-29.28l-25.66,8.95c-6.795,-8.505 -14.516,-16.225 -23.02,-23.02l8.949,-25.66c-9.182,-6.581 -18.989,-12.243 -29.279,-16.905l-17.748,20.58c-10.137,-3.967 -20.683,-6.793 -31.445,-8.425l-5.08,-26.697Zm-16.905,137.141c19.037,0 34.493,15.456 34.493,34.494c0,19.037 -15.456,34.493 -34.493,34.493c-19.037,0 -34.493,-15.456 -34.493,-34.493c0,-19.038 15.456,-34.494 34.493,-34.494Z" style="fill:#cdcdcd;stroke:#595959;stroke-width:2.5px;"/><path d="M625.4,474.596c-10.704,-1.588 -21.583,-1.588 -32.287,0l-4.794,17.686c-10.165,2.335 -19.868,6.354 -28.707,11.891l-15.896,-9.117c-8.692,6.446 -16.385,14.139 -22.831,22.831l9.117,15.896c-5.537,8.839 -9.556,18.542 -11.891,28.707l-17.686,4.794c-1.588,10.704 -1.588,21.583 0,32.287l17.686,4.794c2.335,10.165 6.354,19.868 11.891,28.707l-9.117,15.896c6.446,8.691 14.139,16.384 22.831,22.83l15.896,-9.116c8.839,5.537 18.542,9.556 28.707,11.891l4.794,17.686c10.704,1.588 21.583,1.588 32.287,0l4.794,-17.686c10.165,-2.335 19.868,-6.354 28.707,-11.891l15.896,9.116c8.691,-6.446 16.384,-14.139 22.83,-22.83l-9.116,-15.896c5.537,-8.839 9.556,-18.542 11.891,-28.707l17.686,-4.794c1.588,-10.704 1.588,-21.583 0,-32.287l-17.686,-4.794c-2.335,-10.165 -6.354,-19.868 -11.891,-28.707l9.116,-15.896c-6.446,-8.692 -14.139,-16.385 -22.83,-22.831l-15.896,9.117c-8.839,-5.537 -18.542,-9.556 -28.707,-11.891l-4.794,-17.686Zm-16.144,86.827c12.145,0 22.005,9.86 22.005,22.004c0,12.145 -9.86,22.005 -22.005,22.005c-12.144,0 -22.004,-9.86 -22.004,-22.005c0,-12.144 9.86,-22.004 22.004,-22.004Z" style="fill:#cdcdcd;stroke:#595959;stroke-width:2.5px;"/></svg>