<?xml version="1.0" encoding="UTF-8" standalone="no"?>
<!DOCTYPE svg PUBLIC "-//W3C//DTD SVG 1.1//EN" "http://www.w3.org/Graphics/SVG/1.1/DTD/svg11.dtd">
<svg width="100%" height="100%" viewBox="0 0 2048 2048" version="1.1" xmlns="http://www.w3.org/2000/svg" xmlns:xlink="http://www.w3.org/1999/xlink" xml:space="preserve" style="fill-rule:evenodd;clip-rule:evenodd;stroke-linejoin:round;stroke-miterlimit:1.41421;">
    <path d="M1024,67.737C1547.47,67.737 1972.46,496.224 1972.46,1024C1972.46,1551.78 1547.47,1980.26 1024,1980.26C500.532,1980.26 75.543,1551.78 75.543,1024C75.543,496.224 500.532,67.737 1024,67.737ZM807.345,548.976L807.345,392.18L640.002,392.18L640.002,548.976L639.662,548.976L639.662,864.635L643.2,864.635L639.662,868.544L808.177,912.496L808.177,1225.45L639.662,1286.45L641.552,1289.34L639.662,1289.34L639.662,1369.34L546.311,1369.34L546.311,1655.82L1501.69,1655.82L1501.69,1369.34L1404.76,1369.34L1404.76,1289.34L1402.87,1289.34L1404.76,1286.45L1224.46,1221.19L1224.46,915.571L1404.76,868.544L1401.49,864.929L1404.76,864.929L1404.76,575.909L1405.92,575.909L1405.92,392.18L1236.56,392.18L1236.56,549.271L1236.25,549.271L1236.25,597.805L1100.58,597.805L1100.58,548.976L1100.6,548.976L1100.6,394.857L932.627,394.857L932.627,548.976L932.06,548.976L932.06,597.805L808.177,597.805L808.177,548.976L807.345,548.976Z"/>
</svg>
